# xmcd CD database file
#
# Track frame offsets:
#	150
#	40355
#	208617
#
# Disc length: 3600 seconds
#
# Revision: 0
# Processed by: cddbd v1.5.2PL0 Copyright (c) Steve Scherf et al.
# Submitted via: CDex 1.70beta2
#
DISCID=240e0e03
DTITLE=Tiberian Dahlgren Betsch - Ulysses
DYEAR=2007
DGENRE=Jazz
TTITLE0=Chapter I
TTITLE1=Chapter II
TTITLE2=Chapter III
EXTD=YEAR: 2007
EXTT0=
EXTT1=
EXTT2=
PLAYORDER=
